<?xml version="1.0" encoding="UTF-8" standalone="no"?>
<svg xmlns:rdf="http://www.w3.org/1999/02/22-rdf-syntax-ns#" xmlns="http://www.w3.org/2000/svg" xml:space="preserve" height="384.81" viewBox="0 0 308.45999 384.80682" width="308.46" version="1.1" xmlns:cc="http://creativecommons.org/ns#" xmlns:dc="http://purl.org/dc/elements/1.1/"><defs><clipPath id="a" clipPathUnits="userSpaceOnUse"><path d="m0 0h2467.7v3078.5h-2467.7v-3078.5z"/></clipPath></defs><g transform="matrix(1.25 0 0 -1.25 0 384.81)"><g transform="scale(.1)"><g fill="#222c37" clip-path="url(#a)"><path d="m1232.1 623.66c-246.14 0-411.85 132.7-470.97 305.83-10.343 30.293 12.625 61.262 44.637 61.262h245.09c13.04 0 25.73-4.68 34.45-14.371 30.82-34.27 79.17-64.399 138.14-64.399 93.35 0 172.84 76.09 172.84 169.36 0 83.01-60.5 167.77-174.53 167.77-55.95 0-113.19-18.5-152.12-81-10.61-17.03-30.51-25.82-49.99-20.99l-188.29 46.7c-23.559 5.85-38.781 28.68-35.117 52.67l98.023 643.08c3.504 22.93 23.223 41.18 46.418 41.18h619.4c25.93 0 42.25-23.64 42.25-49.58v-180.85c0-25.93-16.32-49.57-42.25-49.57h-369.06c-23.09 0-42.76-15.49-46.37-38.3l-8.4-52.33c-5.22-32.95 24.46-61.02 56.93-53.36 25.25 5.96 57.76 9.97 102.86 9.97 302.35 0 426.78-252.17 426.78-428.45 0-195.14-146.87-464.62-490.72-464.62zm1230 338.79-427.9 1318.8c-15.18 46.72-58.72 79.56-107.85 79.56h-1384.9c-49.125 0-92.664-32.84-107.84-79.56l-428.11-1318c-15.171-46.67 1.4539-98.18 41.188-127.05l1120.5-814.44c39.75-28.879 93.57-28.973 133.32-0.0898l1120.4 814.14c39.73 28.867 56.36 79.976 41.19 126.69"/><path d="m1263.9 2944.2h-42.52v-98.34c0-25.32-10.39-45.44-40.9-45.44-30.18-0.33-38.94 20.44-38.94 46.73v97.05h-42.52v-107.76c0-31.15 11.03-75.62 69.46-75.95 32.13-0.32 48.03 15.26 55.5 29.21v-23.69h39.92v178.19"/><path d="m1280.8 2766h42.52v98.35c0 24.99 10.38 45.11 40.57 45.44 29.86 0 38.62-20.45 38.62-47.06v-96.73h42.52v107.44c0 31.48-11.03 75.95-69.13 76.27-31.81 0.32-47.72-15.25-55.5-29.21 0.32 8.44 0.32 15.9 0.32 23.69h-39.92v-178.19"/><path d="m1461.3 2766h42.52v178.19h-42.52v-178.19zm0 202.21h42.52v37.98h-42.52v-37.98"/><path d="m1548.3 2766h42.52v145.41h30.51l-12.62 32.78h-17.89v62h-42.52v-62h-29.54v-32.78h29.54v-145.41"/><path d="m1662.4 2703.7h45.44l93.81 240.51h-45.44l-42.85-118.47-43.49 118.47h-45.44l67.18-171.37-29.21-69.14"/><path d="m865.9 2856.7 77.609 134.02 37.504-134.02-37.504-133.99-77.609 133.99zm-37.829-21.76 77.622-134-135.18 34.63-97.668 99.37h155.23zm77.606 177.56-77.606-134.02h-155.23l97.668 99.37 135.17 34.65zm110.8-110.19-47.353 176.15-176.73-47.21-26.161-45.99-53.085 0.38-129.36-128.95 129.36-128.92h0.003l53.063 0.39 26.199-45.99 176.71-47.21 47.353 176.13-26.892 45.61 26.892 45.61"/></g></g></g></svg>
